<svg xmlns="http://www.w3.org/2000/svg" width="24" height="24" viewBox="0 0 24 24" fill="none" stroke="currentColor" stroke-width="1.5" stroke-linecap="round" stroke-linejoin="round">
  <path d="M6 4H18A3 3 0 0 1 21 7V13A3 3 0 0 1 18 16H10L7 19V16H6A3 3 0 0 1 3 13V7A3 3 0 0 1 6 4Z"/>
  <path d="M9 9.2V10.8"/>
  <path d="M15 9.2C15 11.2 12.8 11.9 10.4 12"/>
  <circle cx="9" cy="8" r="1.15" fill="currentColor" stroke="none"/>
  <circle cx="9" cy="12" r="1.15" fill="currentColor" stroke="none"/>
  <circle cx="15" cy="8" r="1.15" fill="currentColor" stroke="none"/>
</svg>
